<svg width="128" height="128" viewBox="0 0 128 128" fill="none" xmlns="http://www.w3.org/2000/svg">
  <!-- 渐变定义 -->
  <defs>
    <!-- 主背景渐变 -->
    <linearGradient id="bgGradient" x1="0%" y1="0%" x2="100%" y2="100%">
      <stop offset="0%" style="stop-color:#4f46e5;stop-opacity:1" />
      <stop offset="50%" style="stop-color:#7c3aed;stop-opacity:1" />
      <stop offset="100%" style="stop-color:#ec4899;stop-opacity:1" />
    </linearGradient>

    <!-- 卡片渐变 -->
    <linearGradient id="cardGradient" x1="0%" y1="0%" x2="100%" y2="100%">
      <stop offset="0%" style="stop-color:#ffffff;stop-opacity:0.95" />
      <stop offset="100%" style="stop-color:#f8fafc;stop-opacity:0.9" />
    </linearGradient>

    <!-- 阴影滤镜 -->
    <filter id="shadow" x="-50%" y="-50%" width="200%" height="200%">
      <feDropShadow dx="0" dy="4" stdDeviation="8" flood-color="#000000" flood-opacity="0.15"/>
    </filter>

    <!-- 内阴影滤镜 -->
    <filter id="innerShadow" x="-50%" y="-50%" width="200%" height="200%">
      <feDropShadow dx="0" dy="2" stdDeviation="4" flood-color="#000000" flood-opacity="0.1"/>
    </filter>
  </defs>

  <!-- 主背景圆形 -->
  <circle cx="64" cy="64" r="56" fill="url(#bgGradient)" filter="url(#shadow)"/>

  <!-- 装饰性光晕 -->
  <circle cx="64" cy="64" r="52" fill="none" stroke="url(#cardGradient)" stroke-width="1" opacity="0.3"/>

  <!-- 方寸网格容器 -->
  <g transform="translate(64, 64)">
    <!-- 网格卡片 - 3x3布局，更现代的设计 -->

    <!-- 第一行 -->
    <rect x="-18" y="-18" width="10" height="10" rx="3" fill="url(#cardGradient)" filter="url(#innerShadow)"/>
    <rect x="-4" y="-18" width="10" height="10" rx="3" fill="url(#cardGradient)" filter="url(#innerShadow)" opacity="0.8"/>
    <rect x="10" y="-18" width="10" height="10" rx="3" fill="url(#cardGradient)" filter="url(#innerShadow)"/>

    <!-- 第二行 -->
    <rect x="-18" y="-4" width="10" height="10" rx="3" fill="url(#cardGradient)" filter="url(#innerShadow)" opacity="0.8"/>
    <rect x="-4" y="-4" width="10" height="10" rx="3" fill="url(#cardGradient)" filter="url(#innerShadow)"/>
    <rect x="10" y="-4" width="10" height="10" rx="3" fill="url(#cardGradient)" filter="url(#innerShadow)" opacity="0.8"/>

    <!-- 第三行 -->
    <rect x="-18" y="10" width="10" height="10" rx="3" fill="url(#cardGradient)" filter="url(#innerShadow)"/>
    <rect x="-4" y="10" width="10" height="10" rx="3" fill="url(#cardGradient)" filter="url(#innerShadow)" opacity="0.8"/>

    <!-- 特殊的加号卡片 -->
    <rect x="10" y="10" width="10" height="10" rx="3" fill="none" stroke="url(#cardGradient)" stroke-width="1.5" opacity="0.9"/>
    <line x1="15" y1="12" x2="15" y2="18" stroke="url(#cardGradient)" stroke-width="1.5" stroke-linecap="round"/>
    <line x1="12" y1="15" x2="18" y2="15" stroke="url(#cardGradient)" stroke-width="1.5" stroke-linecap="round"/>
  </g>

  <!-- 装饰性高光 -->
  <ellipse cx="52" cy="48" rx="8" ry="4" fill="#ffffff" opacity="0.2" transform="rotate(-30 52 48)"/>
</svg>
